<?xml version="1.0" standalone="no"?>
<!DOCTYPE svg PUBLIC "-//W3C//DTD SVG 20010904//EN"
 "http://www.w3.org/TR/2001/REC-SVG-20010904/DTD/svg10.dtd">
<svg version="1.0" xmlns="http://www.w3.org/2000/svg"
  width="200.000000pt" height="200.000000pt" viewBox="0 0 200.000000 200.000000"
  preserveAspectRatio="xMidYMid meet"
>
  <metadata>
    Created by potrace 1.16, written by Peter Selinger 2001-2019
  </metadata>
  <g transform="translate(0.000000,200.000000) scale(0.100000,-0.100000)"
    fill="#000000" stroke="none"
  >
    <path d="M865 1909 c-93 -13 -246 -66 -327 -114 -194 -115 -338 -291 -407
      -500 -161 -487 94 -1003 575 -1164 484 -162 1003 95 1163 575 64 191 64 396 0
      589 -138 418 -561 676 -1004 614z m293 -175 c216 -44 401 -179 510 -372 16
      -30 44 -63 61 -73 28 -17 32 -24 29 -57 -4 -47 -41 -69 -82 -50 -26 11 -29 17
      -40 86 -8 46 -82 156 -149 221 -51 50 -150 121 -169 121 -4 0 -8 -44 -8 -98
      l0 -98 -59 -58 -60 -59 20 -29 20 -28 130 0 129 0 0 -75 0 -75 99 0 c81 0 100
      3 105 16 4 10 15 14 33 12 l28 -3 3 -109 c7 -262 -108 -483 -333 -638 -168
      -117 -408 -157 -610 -103 -208 55 -393 210 -485 405 -32 68 -34 72 -63 113
      -22 31 -16 61 18 83 29 19 60 11 81 -22 14 -20 14 -29 4 -53 -10 -26 -9 -36
      12 -80 l23 -50 85 73 85 73 5 109 5 109 88 3 87 3 0 54 0 54 -57 3 -58 3 -3
      58 -3 58 -137 -3 -136 -3 -19 -60 c-10 -33 -21 -103 -24 -157 l-6 -96 -29 -4
      c-38 -6 -44 19 -30 136 23 183 94 330 222 456 183 181 429 255 678 204z"
    />
    <path d="M921 1679 c-97 -12 -91 -5 -91 -124 l0 -105 60 0 60 0 0 -60 0 -60
      88 0 88 0 62 63 62 63 0 92 c0 91 -1 93 -26 102 -76 29 -210 42 -303 29z"
    />
    <path d="M683 1601 c-93 -49 -172 -117 -228 -196 -25 -34 -45 -65 -45 -69 0
      -3 52 -6 115 -6 l114 0 3 58 3 57 58 3 57 3 0 94 c0 52 -1 95 -2 95 -2 0 -36
      -18 -75 -39z"
    />
    <path d="M710 1295 l0 -85 90 0 90 0 0 85 0 85 -90 0 -90 0 0 -85z"/>
    <path d="M950 1200 l0 -60 -60 0 -60 0 0 -90 0 -90 -90 0 -90 0 0 -58 c0 -57
      1 -59 54 -111 l55 -54 3 54 3 54 153 3 152 3 0 -91 0 -90 62 0 62 0 58 57 58
      57 0 73 0 73 -60 0 -60 0 0 121 c0 118 -1 121 -30 165 l-31 44 -89 0 -90 0 0
      -60z"
    />
    <path d="M1250 1085 l0 -85 90 0 90 0 0 85 0 85 -90 0 -90 0 0 -85z"/>
    <path d="M1490 975 l0 -45 -60 0 -60 0 0 -79 c0 -69 -3 -83 -24 -107 l-23 -28
      101 -89 101 -89 28 33 c73 87 147 292 147 409 l0 40 -105 0 -105 0 0 -45z"
    />
    <path d="M830 695 l0 -85 90 0 90 0 0 85 0 85 -90 0 -90 0 0 -85z"/>
    <path d="M538 684 c-49 -42 -88 -80 -88 -85 0 -19 65 -92 126 -140 71 -56 182
      -111 269 -134 88 -22 253 -20 345 6 88 24 189 75 245 124 l40 35 -75 71 c-116
      109 -115 108 -153 70 -31 -29 -38 -31 -105 -31 l-72 0 0 -30 0 -31 -152 3
      -153 3 -3 45 c-3 40 -10 52 -65 108 -34 34 -64 62 -67 62 -3 0 -44 -35 -92
      -76z"
    />
  </g>
</svg>
